<svg width="20" height="21" viewBox="0 0 20 21" fill="none" xmlns="http://www.w3.org/2000/svg">
<path d="M10 12.7357L2.54753 20.5608C2.26869 20.8536 1.91381 21 1.48289 21C1.05196 21 0.697084 20.8536 0.41825 20.5608C0.139416 20.2681 0 19.8954 0 19.443C0 18.9905 0.139416 18.6179 0.41825 18.3251L7.87072 10.5L0.41825 2.6749C0.139416 2.38213 0 2.00951 0 1.55703C0 1.10456 0.139416 0.731939 0.41825 0.439163C0.697084 0.146387 1.05196 0 1.48289 0C1.91381 0 2.26869 0.146387 2.54753 0.439163L10 8.26426L17.4525 0.439163C17.7313 0.146387 18.0862 0 18.5171 0C18.948 0 19.3029 0.146387 19.5817 0.439163C19.8606 0.731939 20 1.10456 20 1.55703C20 2.00951 19.8606 2.38213 19.5817 2.6749L12.1293 10.5L19.5817 18.3251C19.8606 18.6179 20 18.9905 20 19.443C20 19.8954 19.8606 20.2681 19.5817 20.5608C19.3029 20.8536 18.948 21 18.5171 21C18.0862 21 17.7313 20.8536 17.4525 20.5608L10 12.7357Z" fill="black"/>
</svg>
